<svg width="182" height="71" viewBox="0 0 182 71" fill="none" xmlns="http://www.w3.org/2000/svg">
<path d="M21.24 56.56C29.15 56.56 35.38 53.06 38.11 47.04L29.64 42.42C27.61 46.06 24.6 47.6 21.17 47.6C15.64 47.6 11.3 43.75 11.3 37.17C11.3 30.59 15.64 26.74 21.17 26.74C24.6 26.74 27.61 28.35 29.64 31.92L38.11 27.37C35.38 21.21 29.15 17.78 21.24 17.78C8.99 17.78 0.24 25.83 0.24 37.17C0.24 48.51 8.99 56.56 21.24 56.56ZM57.9889 56.56C69.9589 56.56 78.6389 48.51 78.6389 37.17C78.6389 25.83 69.9589 17.78 57.9889 17.78C46.0189 17.78 37.2689 25.83 37.2689 37.17C37.2689 48.51 46.0189 56.56 57.9889 56.56ZM57.9889 47.6C52.5289 47.6 48.3289 43.68 48.3289 37.17C48.3289 30.66 52.5289 26.74 57.9889 26.74C63.4489 26.74 67.5789 30.66 67.5789 37.17C67.5789 43.68 63.4489 47.6 57.9889 47.6ZM109.528 4.06V22.33C106.798 19.25 102.878 17.78 98.2581 17.78C87.6181 17.78 79.4281 25.34 79.4281 37.17C79.4281 49 87.6181 56.56 98.2581 56.56C103.298 56.56 107.288 54.95 110.018 51.66V56H120.448V4.06H109.528ZM100.148 47.6C94.6881 47.6 90.4881 43.68 90.4881 37.17C90.4881 30.66 94.6881 26.74 100.148 26.74C105.538 26.74 109.738 30.66 109.738 37.17C109.738 43.68 105.538 47.6 100.148 47.6ZM132.165 13.09C136.225 13.09 138.955 10.43 138.955 6.79C138.955 3.43 136.225 0.909996 132.165 0.909996C128.105 0.909996 125.375 3.57 125.375 7C125.375 10.43 128.105 13.09 132.165 13.09ZM126.705 56H137.625V18.34H126.705V56ZM170.79 18.34L160.15 43.89L149.58 18.34H138.31L154.62 56.28L154.48 56.63C153.01 59.99 151.33 61.32 148.32 61.32C146.15 61.32 143.84 60.41 142.16 58.94L138.17 66.71C140.62 68.88 144.82 70.14 148.67 70.14C155.46 70.14 160.64 67.41 164.28 58.31L181.29 18.34H170.79Z" fill="#8C96FF"/>
</svg>
