<svg width="78" height="30" viewBox="0 0 78 30" fill="none" xmlns="http://www.w3.org/2000/svg">
<path d="M9.77281 24.2355C13.0991 24.2355 15.7189 22.7637 16.8669 20.2322L13.3051 18.2894C12.4515 19.8201 11.1857 20.4677 9.74337 20.4677C7.41791 20.4677 5.59287 18.8487 5.59287 16.0817C5.59287 13.3147 7.41791 11.6957 9.74337 11.6957C11.1857 11.6957 12.4515 12.3727 13.3051 13.874L16.8669 11.9606C15.7189 9.37023 13.0991 7.92786 9.77281 7.92786C4.62148 7.92786 0.941957 11.313 0.941957 16.0817C0.941957 20.8503 4.62148 24.2355 9.77281 24.2355ZM25.2263 24.2355C30.2599 24.2355 33.91 20.8503 33.91 16.0817C33.91 11.313 30.2599 7.92786 25.2263 7.92786C20.1927 7.92786 16.5132 11.313 16.5132 16.0817C16.5132 20.8503 20.1927 24.2355 25.2263 24.2355ZM25.2263 20.4677C22.9303 20.4677 21.1641 18.8192 21.1641 16.0817C21.1641 13.3441 22.9303 11.6957 25.2263 11.6957C27.5224 11.6957 29.2591 13.3441 29.2591 16.0817C29.2591 18.8192 27.5224 20.4677 25.2263 20.4677ZM46.8994 2.15837V9.84121C45.7514 8.54601 44.103 7.92786 42.1602 7.92786C37.6859 7.92786 34.2418 11.107 34.2418 16.0817C34.2418 21.0564 37.6859 24.2355 42.1602 24.2355C44.2796 24.2355 45.9574 23.5585 47.1054 22.175V24H51.4914V2.15837H46.8994ZM42.9549 20.4677C40.6589 20.4677 38.8928 18.8192 38.8928 16.0817C38.8928 13.3441 40.6589 11.6957 42.9549 11.6957C45.2215 11.6957 46.9877 13.3441 46.9877 16.0817C46.9877 18.8192 45.2215 20.4677 42.9549 20.4677ZM56.4185 5.95563C58.1258 5.95563 59.2738 4.83706 59.2738 3.30638C59.2738 1.89344 58.1258 0.833739 56.4185 0.833739C54.7112 0.833739 53.5632 1.95232 53.5632 3.39469C53.5632 4.83706 54.7112 5.95563 56.4185 5.95563ZM54.1225 24H58.7146V8.16334H54.1225V24ZM72.6609 8.16334L68.1866 18.9075L63.7417 8.16334H59.0025L65.8611 24.1177L65.8022 24.2649C65.1841 25.6779 64.4776 26.2371 63.2119 26.2371C62.2993 26.2371 61.3279 25.8545 60.6215 25.2363L58.9436 28.5037C59.9739 29.4163 61.74 29.9461 63.359 29.9461C66.2143 29.9461 68.3926 28.7981 69.9233 24.9714L77.0763 8.16334H72.6609Z" fill="white"/>
</svg>
